<?xml version="1.0" encoding="utf-8"?>
<svg viewBox="0 0 500 500" xmlns="http://www.w3.org/2000/svg">
  <g transform="matrix(1, 0, 0, 1, 201.008087, 210.036133)">
    <ellipse fill="#B8CBCD" cx="42.949" cy="185.255" rx="168.311" ry="38.565"/>
    <path d="M 98.272 -4.971 L 98.272 -96.125 L -0.596 -96.125 L -0.596 -4.971 C -44.235 12.663 -74.746 52.91 -74.746 99.758 C -74.746 162.866 -19.416 214.025 48.838 214.025 C 117.093 214.025 172.422 162.866 172.422 99.758 C 172.422 52.907 141.911 12.663 98.272 -4.971 Z" style="stroke: rgb(162, 197, 50); fill: rgb(31, 211, 247);"/>
    <path d="M 50.32 223.819 C -23.664 223.819 -83.857 168.165 -83.857 99.758 C -83.857 52.619 -54.973 9.75 -9.706 -11.194 L -9.706 -96.125 C -9.706 -101.536 -4.964 -105.919 0.886 -105.919 L 99.755 -105.919 C 105.606 -105.919 110.349 -101.536 110.349 -96.125 L 110.349 -11.194 C 155.615 9.75 184.499 52.619 184.499 99.758 C 184.499 168.165 124.307 223.819 50.32 223.819 Z M 11.48 -86.332 L 11.48 -4.971 C 11.48 -1.08 8.987 2.448 5.128 4.003 C -36.057 20.647 -62.671 58.232 -62.671 99.758 C -62.671 157.365 -11.983 204.23 50.32 204.23 C 112.623 204.23 163.313 157.365 163.313 99.758 C 163.313 58.232 136.702 20.647 95.514 4.003 C 91.655 2.448 89.162 -1.08 89.162 -4.971 L 89.162 -86.332 L 11.48 -86.332 Z" style="fill: rgb(68, 68, 68);"/>
    <path fill="#FFFFFF" d="M -39.789 103.024 C -38.42 148.018 1.431 184.114 50.426 184.114 C 99.423 184.114 139.275 148.018 140.644 103.024 L -39.789 103.024 Z"/>
    <path d="M 50.426 190.643 C -2.628 190.643 -45.356 152.236 -46.849 103.21 C -46.902 101.447 -46.185 99.74 -44.854 98.473 C -43.525 97.209 -41.697 96.494 -39.789 96.494 L 140.644 96.494 C 142.551 96.494 144.38 97.209 145.707 98.469 C 147.04 99.736 147.759 101.444 147.703 103.206 C 146.212 152.236 103.479 190.643 50.426 190.643 Z M -32.22 109.554 C -27.48 148.204 7.522 177.584 50.426 177.584 C 93.331 177.584 128.331 148.204 133.07 109.554 L -32.22 109.554 Z" style="fill: rgb(68, 68, 68);"/>
    <ellipse cx="45.686" cy="142.131" rx="10.971" ry="9.723" style="fill: rgb(68, 68, 68);"/>
    <ellipse cx="252.433" cy="305.195" rx="9.143" ry="8.103" style="fill: rgb(68, 68, 68);" transform="matrix(1.000002, 0, 0, 1, -173.899248, -151.628113)"/>
    <ellipse cx="29.293" cy="159.381" rx="6.403" ry="5.67" style="fill: rgb(68, 68, 68);"/>
    <rect x="11.48" y="-78.171" opacity="0.2" fill="#8D4520" enable-background="new    " width="77.682" height="29.383"/>
    <path fill="#8D4520" d="M 98.272 -79.803 L -0.596 -79.803 C -4.498 -79.803 -7.659 -82.727 -7.659 -86.332 C -7.659 -89.936 -4.498 -92.861 -0.596 -92.861 L 98.272 -92.861 C 102.17 -92.861 105.335 -89.936 105.335 -86.332 C 105.335 -82.727 102.17 -79.803 98.272 -79.803 Z"/>
    <line fill="none" x1="13.527" y1="24.67" x2="84.148" y2="24.67"/>
    <path d="M 84.148 32.831 L 13.527 32.831 C 9.626 32.831 6.466 29.906 6.466 26.302 C 6.466 22.698 9.626 19.773 13.527 19.773 L 84.148 19.773 C 88.046 19.773 91.209 22.698 91.209 26.302 C 91.209 29.906 88.046 32.831 84.148 32.831 Z" style="fill: rgb(68, 68, 68);"/>
    <line fill="none" x1="13.527" y1="50.789" x2="84.148" y2="50.789"/>
    <path d="M 84.148 58.95 L 13.527 58.95 C 9.626 58.95 6.466 56.024 6.466 52.42 C 6.466 48.816 9.626 45.891 13.527 45.891 L 84.148 45.891 C 88.046 45.891 91.209 48.816 91.209 52.42 C 91.209 56.024 88.046 58.95 84.148 58.95 Z" style="fill: rgb(68, 68, 68);"/>
    <ellipse cx="48.839" cy="-94.493" rx="63.558" ry="20.677" style="fill: rgba(31, 211, 247, 0.819608);"/>
    <path d="M 48.838 -64.024 C 13.124 -64.024 -25.313 -73.56 -25.313 -94.493 C -25.313 -115.426 13.124 -124.964 48.838 -124.964 C 84.55 -124.964 122.989 -115.426 122.989 -94.493 C 122.989 -73.56 84.55 -64.024 48.838 -64.024 Z M -3.66 -94.493 C 0.17 -90.742 17.892 -83.612 48.838 -83.612 C 79.784 -83.612 97.502 -90.742 101.334 -94.493 C 98.72 -97.054 89.65 -101.18 74.331 -103.55 C 67.186 -104.653 58.68 -105.374 48.838 -105.374 C 17.892 -105.374 0.17 -98.245 -3.66 -94.493 Z" style="fill: rgb(68, 68, 68);"/>
    <ellipse cx="50.374" cy="101.392" rx="90.269" ry="19.588" style="fill: rgb(26, 186, 218);"/>
    <path d="M 50.374 127.51 C 40.413 127.51 -46.957 126.774 -46.957 101.39 C -46.957 76.007 40.413 75.273 50.374 75.273 C 60.334 75.273 147.706 76.007 147.706 101.39 C 147.706 126.774 60.334 127.51 50.374 127.51 Z M -32.48 101.39 C -27.649 106.38 2.162 114.451 50.374 114.451 C 98.587 114.451 128.399 106.38 133.229 101.39 C 128.399 96.402 98.587 88.333 50.374 88.333 C 2.162 88.333 -27.649 96.402 -32.48 101.39 Z" style="fill: rgb(68, 68, 68);"/>
  </g>
</svg>