<?xml version="1.0" encoding="utf-8"?>
<!-- Generator: Adobe Illustrator 17.0.0, SVG Export Plug-In . SVG Version: 6.00 Build 0)  -->
<!DOCTYPE svg PUBLIC "-//W3C//DTD SVG 1.1//EN" "http://www.w3.org/Graphics/SVG/1.1/DTD/svg11.dtd">
<svg version="1.1" id="Слой_3" xmlns="http://www.w3.org/2000/svg" xmlns:xlink="http://www.w3.org/1999/xlink" x="0px" y="0px"
	 width="128px" height="128px" viewBox="0 0 128 128" enable-background="new 0 0 128 128" xml:space="preserve">
<g>
	<ellipse fill="#B8CBCD" cx="61.412" cy="103.188" rx="47.667" ry="11.813"/>
	<path fill="#F6E89A" d="M77.08,44.921V17h-28v27.921c-12.359,5.401-21,17.729-21,32.079c0,19.33,15.67,35,35,35s35-15.67,35-35
		C98.08,62.649,89.439,50.322,77.08,44.921z"/>
	<path fill="#8D4520" d="M63.5,115c-20.953,0-38-17.047-38-38c0-14.439,8.18-27.57,21-33.985V17c0-1.657,1.343-3,3-3h28
		c1.657,0,3,1.343,3,3v26.015c12.82,6.415,21,19.546,21,33.985C101.5,97.953,84.453,115,63.5,115z M52.5,20v24.921
		c0,1.192-0.706,2.272-1.799,2.749C39.037,52.768,31.5,64.28,31.5,77c0,17.645,14.355,32,32,32c17.644,0,32-14.355,32-32
		c0-12.72-7.537-24.232-19.201-29.33c-1.093-0.477-1.799-1.557-1.799-2.749V20H52.5z"/>
	<path fill="#FFFFFF" d="M37.98,78c0.388,13.782,11.674,24.838,25.55,24.838S88.692,91.782,89.08,78H37.98z"/>
	<path fill="#8D4520" d="M63.53,104.838c-15.025,0-27.126-11.764-27.549-26.781c-0.015-0.54,0.188-1.063,0.565-1.451
		C36.922,76.219,37.44,76,37.98,76h51.1c0.54,0,1.058,0.219,1.434,0.605c0.377,0.388,0.581,0.911,0.565,1.451
		C90.657,93.074,78.555,104.838,63.53,104.838z M40.124,80c1.342,11.839,11.255,20.838,23.406,20.838S85.593,91.839,86.935,80
		H40.124z"/>
	<ellipse fill="#8D4520" cx="62.187" cy="89.979" rx="3.107" ry="2.978"/>
	<ellipse fill="#8D4520" cx="71.49" cy="93.482" rx="2.589" ry="2.482"/>
	<ellipse fill="#8D4520" cx="57.545" cy="95.263" rx="1.813" ry="1.737"/>
	<rect x="52.5" y="22.5" opacity="0.2" fill="#8D4520" enable-background="new    " width="22" height="9"/>
	<path fill="#8D4520" d="M77.08,22h-28c-1.105,0-2-0.896-2-2s0.895-2,2-2h28c1.104,0,2,0.896,2,2S78.184,22,77.08,22z"/>
	<line fill="none" x1="53.08" y1="54" x2="73.08" y2="54"/>
	<path fill="#8D4520" d="M73.08,56.5h-20c-1.105,0-2-0.896-2-2s0.895-2,2-2h20c1.104,0,2,0.896,2,2S74.184,56.5,73.08,56.5z"/>
	<line fill="none" x1="53.08" y1="62" x2="73.08" y2="62"/>
	<path fill="#8D4520" d="M73.08,64.5h-20c-1.105,0-2-0.896-2-2s0.895-2,2-2h20c1.104,0,2,0.896,2,2S74.184,64.5,73.08,64.5z"/>
	<ellipse fill="#F6E89A" cx="63.08" cy="17.5" rx="18" ry="6.333"/>
	<path fill="#8D4520" d="M63.08,26.833c-10.114,0-21-2.921-21-9.333s10.886-9.333,21-9.333s21,2.921,21,9.333
		S73.194,26.833,63.08,26.833z M48.212,17.5c1.085,1.149,6.104,3.333,14.868,3.333s13.782-2.184,14.867-3.333
		c-1.085-1.149-6.104-3.333-14.867-3.333C54.316,14.167,49.297,16.351,48.212,17.5z"/>
	<ellipse fill="#F6ECB6" cx="63.515" cy="77.5" rx="25.565" ry="6"/>
	<path fill="#8D4520" d="M63.515,85.5c-2.821,0-27.565-0.225-27.565-8s24.744-8,27.565-8c2.821,0,27.565,0.225,27.565,8
		S66.336,85.5,63.515,85.5z M40.05,77.5c1.368,1.528,9.811,4,23.465,4s22.097-2.472,23.465-4c-1.368-1.528-9.811-4-23.465-4
		S41.418,75.972,40.05,77.5z"/>
</g>
</svg>
