<?xml version="1.0" encoding="utf-8"?>
<!-- Generator: Adobe Illustrator 17.0.0, SVG Export Plug-In . SVG Version: 6.00 Build 0)  -->
<!DOCTYPE svg PUBLIC "-//W3C//DTD SVG 1.1//EN" "http://www.w3.org/Graphics/SVG/1.1/DTD/svg11.dtd">
<svg version="1.1" id="Слой_3" xmlns="http://www.w3.org/2000/svg" xmlns:xlink="http://www.w3.org/1999/xlink" x="0px" y="0px"
	 width="128px" height="128px" viewBox="0 0 128 128" enable-background="new 0 0 128 128" xml:space="preserve">
<g>
	<path d="M67.5,116.333c-20.953,0-38-17.047-38-38c0-14.439,8.18-27.57,21-33.985V24.333c0-1.657,1.343-3,3-3s3,1.343,3,3v21.921
		c0,1.192-0.706,2.272-1.799,2.749C43.037,54.101,35.5,65.613,35.5,78.333c0,17.645,14.355,32,32,32c17.644,0,32-14.355,32-32
		c0-12.72-7.537-24.232-19.201-29.33c-1.093-0.477-1.799-1.557-1.799-2.749V24.333c0-1.657,1.343-3,3-3s3,1.343,3,3v20.015
		c12.82,6.415,21,19.546,21,33.985C105.5,99.286,88.453,116.333,67.5,116.333z"/>
	<path d="M67.95,106.171c-15.025,0-27.126-11.764-27.549-26.781c-0.031-1.104,0.839-2.024,1.943-2.056
		c1.113-0.04,2.025,0.839,2.055,1.942c0.361,12.838,10.706,22.895,23.551,22.895s23.189-10.057,23.551-22.895
		c0.03-1.085,0.92-1.943,1.998-1.943c0.019,0,0.038,0,0.058,0.001c1.104,0.031,1.974,0.951,1.942,2.056
		C95.077,94.407,82.975,106.171,67.95,106.171z"/>
	<ellipse cx="66.607" cy="91.312" rx="3.107" ry="2.978"/>
	<ellipse cx="75.91" cy="94.815" rx="2.589" ry="2.482"/>
	<ellipse cx="61.965" cy="96.596" rx="1.813" ry="1.737"/>
	<line fill="none" x1="57.5" y1="55.333" x2="77.5" y2="55.333"/>
	<path d="M77.5,56.5h-20c-1.105,0-2-0.896-2-2s0.895-2,2-2h20c1.104,0,2,0.896,2,2S78.604,56.5,77.5,56.5z"/>
	<line fill="none" x1="57.5" y1="63.333" x2="77.5" y2="63.333"/>
	<path d="M77.5,64.5h-20c-1.105,0-2-0.896-2-2s0.895-2,2-2h20c1.104,0,2,0.896,2,2C79.5,63.604,78.604,64.5,77.5,64.5z"/>
	<path d="M67.5,28.166c-10.114,0-21-2.921-21-9.333S57.386,9.5,67.5,9.5s21,2.921,21,9.333S77.614,28.166,67.5,28.166z
		 M52.632,18.833c1.085,1.149,6.104,3.333,14.868,3.333s13.782-2.184,14.867-3.333C81.282,17.684,76.263,15.5,67.5,15.5
		C58.736,15.5,53.717,17.684,52.632,18.833z"/>
	<path d="M67.935,86.833c-2.821,0-27.565-0.225-27.565-8s24.744-8,27.565-8c2.821,0,27.565,0.225,27.565,8
		S70.756,86.833,67.935,86.833z M44.47,78.833c1.368,1.528,9.811,4,23.465,4s22.097-2.472,23.465-4c-1.368-1.528-9.811-4-23.465-4
		S45.838,77.305,44.47,78.833z"/>
</g>
</svg>
