<?xml version="1.0" encoding="utf-8"?>
<!-- Generator: Adobe Illustrator 17.0.0, SVG Export Plug-In . SVG Version: 6.00 Build 0)  -->
<!DOCTYPE svg PUBLIC "-//W3C//DTD SVG 1.1//EN" "http://www.w3.org/Graphics/SVG/1.1/DTD/svg11.dtd">
<svg version="1.1" id="icon" xmlns="http://www.w3.org/2000/svg" xmlns:xlink="http://www.w3.org/1999/xlink" x="0px" y="0px"
	 width="128px" height="128px" viewBox="0 0 128 128" enable-background="new 0 0 128 128" xml:space="preserve">
<ellipse fill="#B8CBCD" cx="59.333" cy="110.988" rx="47.667" ry="10.186"/>
<path fill="#B2EDA6" d="M76.816,104.725c-7.615,7.615-11.456-10.041-15.556-14.142c-4.101-4.1-4.08-7.941,3.536-15.556
	c7.615-7.615,17.113-10.464,21.213-6.364C90.109,72.763,84.432,97.11,76.816,104.725z"/>
<path fill="#3C663E" d="M73.165,108.609c-4.627,0-7.468-5.765-9.975-10.851c-1.155-2.343-2.349-4.766-3.344-5.761
	c-1.701-1.701-3.881-4.404-3.179-8.235c0.533-2.909,2.604-6.039,6.714-10.149c5.443-5.443,12.138-8.825,17.472-8.825
	c2.688,0,4.96,0.851,6.569,2.461c3.553,3.552,1.411,14.194,0.325,18.605c-1.7,6.905-5.093,15.86-9.518,20.285
	C76.592,107.778,74.887,108.609,73.165,108.609z M80.854,68.788c-4.247,0-9.995,3.004-14.644,7.653
	c-3.406,3.406-5.24,6.037-5.608,8.043c-0.21,1.146-0.105,2.508,2.072,4.685c1.462,1.462,2.686,3.945,4.104,6.821
	c1.692,3.433,4.249,8.62,6.387,8.62c0.776,0,1.645-0.706,2.237-1.298c3.166-3.166,6.488-10.394,8.462-18.413
	c2.119-8.608,1.703-13.849,0.731-14.821C83.739,69.222,82.48,68.788,80.854,68.788z"/>
<path fill="#B2EDA6" d="M13.884,41.617c-7.615,7.615,10.042,11.456,14.142,15.556c4.101,4.101,7.941,4.08,15.556-3.536
	c7.615-7.615,10.464-17.113,6.364-21.213C46.081,28.559,21.265,34.236,13.884,41.617z"/>
<path fill="#3C663E" d="M33.387,61.901C33.386,61.901,33.386,61.901,33.387,61.901c-3.102,0-5.352-1.892-6.774-3.314
	c-0.995-0.995-3.418-2.189-5.761-3.344c-4.964-2.447-10.098-4.977-10.779-9.103c-0.333-2.016,0.474-4.014,2.398-5.938
	c6.108-6.109,22.605-11.028,32.192-11.028c3.272,0,5.464,0.601,6.698,1.835c2.528,2.527,3.136,6.533,1.713,11.277
	c-1.295,4.318-4.164,8.852-8.077,12.764C40.26,59.789,36.679,61.901,33.387,61.901z M44.662,33.175
	c-8.599,0-24.148,4.641-29.364,9.856c-0.96,0.96-1.391,1.788-1.28,2.458c0.347,2.098,5.118,4.45,8.602,6.167
	c2.875,1.417,5.359,2.641,6.821,4.104c1.482,1.481,2.699,2.143,3.946,2.143c2.088,0,4.961-1.857,8.782-5.678
	c3.453-3.453,5.965-7.39,7.074-11.085c0.966-3.221,0.708-5.882-0.71-7.299C48.525,33.832,47.832,33.175,44.662,33.175z"/>
<path fill="#F6E89A" d="M36.922,94.289c-3.432,3.433-14.98,8.258-18.691,4.548c-3.71-3.71,1.824-14.551,5.255-17.983
	c3.433-3.432,9.223-3.207,12.933,0.502C40.13,85.066,40.355,90.856,36.922,94.289z"/>
<path fill="#8D4520" d="M22.338,103.175c-2.662,0-4.757-0.746-6.228-2.216c-5.511-5.511,1.267-18.238,5.255-22.226
	c2.137-2.137,5.024-3.313,8.128-3.313c3.326,0,6.623,1.391,9.048,3.815c2.331,2.33,3.682,5.376,3.806,8.576
	c0.128,3.288-1.046,6.342-3.304,8.6C35.851,99.603,28.028,103.175,22.338,103.175z M29.493,81.42c-1.502,0-2.881,0.553-3.885,1.556
	c-3.55,3.551-6.841,12.155-5.255,13.741c0.222,0.222,0.86,0.459,1.986,0.459c4.254,0,10.493-3.038,12.462-5.007
	c1.063-1.063,1.614-2.527,1.552-4.125c-0.066-1.685-0.795-3.307-2.053-4.565C32.991,82.17,31.239,81.42,29.493,81.42z"/>
<path fill="#B2EDA6" d="M110.518,9.338c-5.378-5.378-41.869,2.977-62.933,24.042C37.278,43.687,31.231,53.042,26.458,63.175
	c-1.758,2.875,0.836,12.642,9.208,21.014c8.372,8.372,16.555,10.273,18.841,7.986l0.458,0.033
	c10.132-4.773,21.203-9.63,31.51-19.937C109.54,49.207,115.114,13.934,110.518,9.338z"/>
<path fill="#3C663E" d="M51.699,95.069c-3.858,0-10.467-2.487-17.447-9.467c-8.647-8.647-11.95-19.186-9.564-23.363
	c5.434-11.514,12.063-20.854,21.482-30.274C63.275,14.86,90.781,5.75,104.061,5.75c3.834,0,6.409,0.711,7.871,2.173
	c3.638,3.637,2.045,15.947-1.147,26.533c-2.634,8.734-9.111,25.445-22.894,39.228c-9.957,9.958-20.768,15.028-30.305,19.502
	l-1.767,0.83c-0.21,0.099-0.435,0.16-0.664,0.182C54.245,94.771,53.069,95.069,51.699,95.069z M104.061,9.75
	c-12.585,0-38.722,8.703-55.062,25.043c-9.101,9.102-15.495,18.118-20.731,29.233c-0.031,0.066-0.065,0.129-0.103,0.191
	c-0.94,1.537,0.666,10.305,8.916,18.556c5.73,5.73,11.471,8.295,14.619,8.295c0.857,0,1.28-0.194,1.395-0.309
	c0.395-0.395,0.93-0.598,1.492-0.584l1.301-0.611c9.691-4.546,19.713-9.247,29.175-18.709c13.165-13.165,19.367-29.18,21.893-37.555
	c3.81-12.635,3.431-21.267,2.149-22.55C108.936,10.585,107.907,9.75,104.061,9.75z"/>
<path fill="#FFFFFF" d="M28.176,73.05c-0.428,0-0.863-0.092-1.276-0.287c-1.499-0.706-2.142-2.494-1.436-3.992
	c3.481-7.391,11.134-21.603,23.269-33.738c9.53-9.53,23.577-17.792,38.541-22.668C98.215,8.8,108.576,6.508,113,10.932
	c1.172,1.171,1.172,3.071,0,4.242c-1.17,1.17-3.066,1.171-4.238,0.005c-3.411-2.981-34.623,2.933-55.785,24.096
	C41.485,50.768,34.208,64.29,30.892,71.328C30.381,72.414,29.302,73.05,28.176,73.05z"/>
<path opacity="0.2" fill="#3C663E" d="M47.335,93.592c-1.113,0-2.183-0.622-2.701-1.691c-0.723-1.491-0.101-3.286,1.39-4.009
	l5.857-2.813c9.613-4.51,19.554-9.172,28.893-18.511c9.669-9.669,16.896-21.063,20.351-32.084
	c3.192-10.181,1.916-15.612,1.089-16.438c-1.172-1.171-1.172-3.071,0-4.242c1.171-1.172,3.071-1.172,4.242,0
	c3.494,3.494,3.645,12.106,0.394,22.476C103.11,48.206,95.356,60.47,85.016,70.81c-10.082,10.082-20.976,15.191-30.587,19.7
	l-1.766,0.829l-4.02,1.951C48.221,93.495,47.775,93.592,47.335,93.592z"/>
<path fill="#3C663E" d="M72.912,109.746c0,0-0.001,0-0.001,0c-5.128-0.001-8.099-5.572-10.72-10.487
	c-0.948-1.777-1.924-3.607-2.735-4.608c-1.548,0.562-3.146,0.952-4.773,1.165c-0.658,0.086-1.352,0.13-2.064,0.13
	c-3.714,0-11.196-1.252-19.58-9.636c-8.815-8.814-12.161-19.675-10.208-24.683c0.025-0.063,0.052-0.126,0.081-0.188
	c0.321-0.681,0.547-1.301,0.787-1.957c0.101-0.279,0.208-0.568,0.324-0.871c-1.078-0.739-2.707-1.583-4.295-2.406
	c-4.699-2.436-10.026-5.196-10.736-9.785c-0.369-2.385,0.564-4.715,2.773-6.924c7.199-7.2,26.249-12.519,34.416-11.067
	C64.292,12.283,90.808,4.751,103.366,4.751c4.239,0,7.106,0.807,8.765,2.466c6.633,6.632,1.171,41.923-19.975,64.892
	c0.674,9.246-6.195,27.714-13.219,34.737C77.014,108.77,74.986,109.746,72.912,109.746z M60.26,88.062
	c0.882,0,1.745,0.389,2.329,1.107c0.269,0.331,0.528,0.62,0.792,0.884c1.498,1.498,2.763,3.87,4.103,6.382
	c1.362,2.555,3.899,7.31,5.427,7.311l0,0c0.15,0,0.724-0.083,1.784-1.142c5.91-5.911,12.709-24.399,11.367-30.911
	c-0.199-0.966,0.089-1.968,0.772-2.681c21.7-22.651,23.647-54.193,21.022-57.588c-0.194-0.153-1.475-0.673-4.49-0.673
	c-12.36,0-38.113,8.056-54.319,23.182c-0.835,0.778-2.041,1.016-3.108,0.613c-0.36-0.137-1.223-0.365-2.95-0.365
	c-7.681,0-21.925,4.5-26.983,9.558c-0.867,0.868-1.129,1.48-1.085,1.764c0.245,1.581,5.008,4.05,7.568,5.376
	c2.625,1.361,5.106,2.646,6.633,4.174c0.183,0.182,0.365,0.35,0.546,0.512c1.035,0.922,1.304,2.434,0.649,3.657
	c-0.428,0.798-0.685,1.503-0.982,2.318c-0.25,0.685-0.533,1.459-0.938,2.334c-0.665,1.987,1.012,10.321,8.884,18.194
	c6.855,6.855,12.552,7.878,15.337,7.878c0.452,0,0.884-0.027,1.285-0.079c1.745-0.229,3.449-0.737,5.063-1.51
	C59.38,88.158,59.823,88.062,60.26,88.062z"/>
<circle fill="#FFFFFF" cx="72.18" cy="47.168" r="11.5"/>
<path fill="#3C663E" d="M72.18,60.668c-3.606,0-6.996-1.404-9.546-3.955c-5.264-5.264-5.264-13.828,0-19.092
	c2.55-2.55,5.94-3.954,9.546-3.954c3.606,0,6.996,1.404,9.546,3.954c5.263,5.264,5.263,13.828,0,19.092
	C79.176,59.264,75.786,60.668,72.18,60.668z M72.18,37.668c-2.538,0-4.923,0.988-6.718,2.782c-3.704,3.704-3.704,9.731,0,13.436
	c1.794,1.794,4.18,2.783,6.718,2.783c2.538,0,4.923-0.988,6.718-2.783c3.704-3.704,3.704-9.731,0-13.436
	C77.103,38.656,74.717,37.668,72.18,37.668z"/>
<path fill="#FFFFFF" d="M76.882,14.23C79.745,20.518,83,27.175,87.803,31.573c5.636,5.16,11.359,7.908,17.694,10.439
	c6.335-15.797,7.302-29.885,4.513-32.674C106.79,6.118,92.418,7.826,76.882,14.23z"/>
<path fill="#3C663E" d="M105.497,44.012c-0.247,0-0.498-0.046-0.742-0.143c-6.904-2.758-12.659-5.654-18.302-10.821
	c-5.066-4.639-8.405-11.43-11.391-17.989c-0.225-0.494-0.239-1.059-0.039-1.564c0.199-0.505,0.596-0.907,1.098-1.114
	c10.069-4.151,20.327-6.629,27.439-6.629c3.831,0,6.403,0.71,7.865,2.172c3.896,3.895,2.07,19.521-4.07,34.833
	C107.04,43.537,106.29,44.012,105.497,44.012z M79.578,15.305c2.594,5.563,5.526,11.084,9.576,14.793
	c4.718,4.32,9.415,6.87,15.217,9.294c5.953-15.74,5.72-27.144,4.225-28.64c-0.167-0.167-1.195-1-5.037-1
	C97.484,9.752,88.445,11.858,79.578,15.305z"/>
</svg>
