<?xml version="1.0" encoding="utf-8"?>
<!-- Generator: Adobe Illustrator 17.0.0, SVG Export Plug-In . SVG Version: 6.00 Build 0)  -->
<!DOCTYPE svg PUBLIC "-//W3C//DTD SVG 1.1//EN" "http://www.w3.org/Graphics/SVG/1.1/DTD/svg11.dtd">
<svg version="1.1" id="icon" xmlns="http://www.w3.org/2000/svg" xmlns:xlink="http://www.w3.org/1999/xlink" x="0px" y="0px"
	 width="128px" height="128px" viewBox="0 0 128 128" enable-background="new 0 0 128 128" xml:space="preserve">
<ellipse fill="#B8CBCD" cx="63.896" cy="110.609" rx="47.667" ry="10.186"/>
<path fill="#F6E89A" d="M26.065,30.403c-2.826-8.334,1.68-12.84,10.014-10.014l4.765,1.615c8.334,2.826,15.784,5.353,16.556,5.614
	c0.772,0.262,1.899,0.107,2.503-0.343c0.604-0.451,6.869-5.126,13.922-10.389l4.21-3.142c7.053-5.263,12.731-2.37,12.619,6.429
	l-0.064,5.003c-0.112,8.799-0.213,16.672-0.223,17.495c-0.011,0.823,0.353,1.759,0.807,2.081c0.455,0.321,6.624,4.855,13.709,10.074
	l5.237,3.858c7.085,5.22,5.958,11.466-2.504,13.882l-5.229,1.492c-8.462,2.415-15.879,4.545-16.481,4.732
	c-0.604,0.188-1.31,1.025-1.57,1.862c-0.26,0.837-2.609,8.397-5.222,16.8l-1.428,4.592c-2.612,8.403-8.906,9.4-13.987,2.215
	l-3.55-5.018c-5.081-7.185-9.479-13.403-9.772-13.818c-0.293-0.415-1.173-0.747-1.954-0.737c-0.781,0.01-8.62,0.11-17.42,0.223
	l-5.152,0.066c-8.8,0.112-11.692-5.566-6.43-12.618l3.254-4.361c5.263-7.052,9.913-13.283,10.333-13.846
	c0.421-0.563,0.539-1.689,0.264-2.502c-0.275-0.813-2.813-8.296-5.64-16.63L26.065,30.403z"/>
<path fill="#8D4520" d="M70.825,112.061c-3.409,0-6.811-2.155-9.577-6.068l-3.55-5.018c-4.33-6.124-8.164-11.545-9.384-13.27
	l-22.721,0.272c-7.194,0-9.936-3.325-10.93-5.307c-1.003-2.001-2.032-6.234,2.351-12.107l13.403-17.961
	c0-0.015-0.002-0.029-0.004-0.039l-7.191-21.198c-1.962-5.784-0.707-9.323,0.691-11.273c2.499-3.484,7.411-4.482,13.128-2.545
	l21.219,7.195c0.007,0,0.014-0.001,0.021-0.002L76.239,11.34c2.866-2.139,5.663-3.224,8.311-3.224c2.314,0,4.371,0.846,5.951,2.447
	c2.114,2.141,3.203,5.477,3.15,9.649l-0.104,8.059c-0.094,7.297-0.171,13.378-0.183,14.367c1.738,1.268,7.781,5.712,13.294,9.773
	l5.237,3.858c5.933,4.371,6.149,8.73,5.751,10.94c-0.398,2.21-2.125,6.219-9.211,8.242l-5.229,1.492
	c-8.147,2.326-14.349,4.107-16.005,4.591c-0.004,0.007-0.007,0.013-0.009,0.019l-6.646,21.383
	C78.747,108.734,75.203,112.06,70.825,112.061L70.825,112.061z M48.386,81.688c1.434,0,3.395,0.526,4.44,2.007
	c0.291,0.411,4.689,6.63,9.771,13.816l3.55,5.018c1.564,2.212,3.313,3.533,4.679,3.532c1.523,0,3.054-1.88,3.994-4.906l6.65-21.391
	c0.471-1.51,1.748-3.28,3.546-3.838c0.691-0.215,8.957-2.586,16.548-4.753l5.229-1.492c2.849-0.813,4.7-2.135,4.953-3.537
	c0.253-1.402-1.021-3.288-3.405-5.044l-5.237-3.858c-7.703-5.675-13.282-9.772-13.66-10.039c-1.463-1.037-2.096-3.042-2.076-4.571
	c0.009-0.723,0.088-6.939,0.184-14.437l0.104-8.059c0.031-2.458-0.486-4.411-1.42-5.357c-0.445-0.452-0.98-0.662-1.682-0.662
	c-1.289,0-2.967,0.722-4.724,2.033L61.694,29.68c-1.364,1.017-3.583,1.348-5.26,0.779L35.115,23.23
	c-3.016-1.023-5.432-0.888-6.324,0.358c-0.795,1.109-0.752,3.296,0.114,5.851l7.206,21.248c0.593,1.75,0.304,3.913-0.702,5.26
	L21.823,74.152c-1.767,2.368-2.438,4.547-1.796,5.829c0.627,1.25,2.708,1.997,5.566,1.997l5.369-0.067l17.421-0.223
	C48.384,81.688,48.385,81.688,48.386,81.688z"/>
<path fill="#FFFFFF" d="M50.912,89.18c-0.965,0-1.911-0.464-2.491-1.324l-2.519-3.743H18.703c-1.338,0-2.526-0.709-3.104-1.85
	c-0.608-1.204-0.443-2.643,0.442-3.847l9.196-12.503c4.3-5.846,8.172-11.105,9.112-12.377c0-0.016-0.002-0.03-0.004-0.041
	c-0.217-0.633-2.739-7.36-6.127-16.287l-0.597-1.574c-2.762-7.278-0.584-10.912,0.961-12.431c1.43-1.406,4.756-3.396,10.968-0.918
	c7.142,2.849,12.918,5.12,14.542,5.734c0.214-0.083,0.529-0.248,0.798-0.484l1.934-1.698c1.245-1.094,3.141-0.968,4.233,0.277
	c1.093,1.246,0.969,3.141-0.276,4.233l-1.932,1.695c-1.609,1.413-4.175,2.521-6.28,1.807c-0.958-0.325-8.567-3.33-15.241-5.992
	c-2.42-0.966-4.023-0.884-4.539-0.377c-0.646,0.636-0.784,2.792,0.442,6.024l0.597,1.574c2.803,7.385,5.894,15.591,6.215,16.538
	c0.593,1.75,0.304,3.914-0.703,5.26c-0.416,0.559-4.589,6.225-9.269,12.588l-6.359,8.646h22.726c1.591,0,3.23,0.848,4.079,2.11
	l2.881,4.28c0.926,1.374,0.563,3.239-0.813,4.165C52.071,89.014,51.488,89.18,50.912,89.18z"/>
<path opacity="0.2" fill="#8D4520" d="M74.912,111.896l-5.824-1.443l4.15-16.745c1.901-7.67,4.055-16.208,4.369-17.219
	c0.471-1.51,1.748-3.28,3.546-3.838c0.881-0.274,10.595-2.53,16.909-3.979l3.672-0.843c3.547-0.814,4.662-2.073,4.757-2.624
	c0.095-0.551-0.539-2.109-3.614-4.056l-2.966-1.879c-5.248-3.323-13.818-8.768-14.472-9.23c-1.461-1.034-2.094-3.039-2.074-4.569
	c0.011-0.885,0.173-9.19,0.327-16.936l0.309-15.419l5.998,0.12L89.69,28.654c-0.173,8.709-0.307,15.632-0.324,16.79
	c1.611,1.044,7.003,4.481,13.756,8.757l2.966,1.879c6.321,4.003,6.671,8.069,6.317,10.137c-0.353,2.068-2.036,5.787-9.329,7.46
	l-3.672,0.843c-8.052,1.848-14.33,3.323-16.069,3.757c-0.001,0.001-0.001,0.001-0.001,0.001c-0.214,0.694-2.023,7.802-4.271,16.873
	L74.912,111.896z"/>
<path fill="#8D4520" d="M70.825,112.061c-3.409,0-6.811-2.155-9.577-6.068l-3.55-5.018c-4.33-6.124-8.164-11.545-9.384-13.27
	l-22.721,0.272c-7.194,0-9.936-3.325-10.93-5.307c-1.003-2.001-2.032-6.234,2.351-12.107l13.403-17.961
	c0-0.015-0.002-0.029-0.004-0.039l-7.191-21.198c-1.962-5.784-0.707-9.323,0.691-11.273c2.499-3.484,7.411-4.482,13.128-2.545
	l21.219,7.195c0.007,0,0.014-0.001,0.021-0.002L76.239,11.34c2.866-2.139,5.663-3.224,8.311-3.224c2.314,0,4.371,0.846,5.951,2.447
	c2.114,2.141,3.203,5.477,3.15,9.649l-0.104,8.059c-0.094,7.297-0.171,13.378-0.183,14.367c1.738,1.268,7.781,5.712,13.294,9.773
	l5.237,3.858c5.933,4.371,6.149,8.73,5.751,10.94c-0.398,2.21-2.125,6.219-9.211,8.242l-5.229,1.492
	c-8.147,2.326-14.349,4.107-16.005,4.591c-0.004,0.007-0.007,0.013-0.009,0.019l-6.646,21.383
	C78.747,108.734,75.203,112.06,70.825,112.061L70.825,112.061z M48.386,81.688c1.434,0,3.395,0.526,4.44,2.007
	c0.291,0.411,4.689,6.63,9.771,13.816l3.55,5.018c1.564,2.212,3.313,3.533,4.679,3.532c1.523,0,3.054-1.88,3.994-4.906l6.65-21.391
	c0.471-1.51,1.748-3.28,3.546-3.838c0.691-0.215,8.957-2.586,16.548-4.753l5.229-1.492c2.849-0.813,4.7-2.135,4.953-3.537
	c0.253-1.402-1.021-3.288-3.405-5.044l-5.237-3.858c-7.703-5.675-13.282-9.772-13.66-10.039c-1.463-1.037-2.096-3.042-2.076-4.571
	c0.009-0.723,0.088-6.939,0.184-14.437l0.104-8.059c0.031-2.458-0.486-4.411-1.42-5.357c-0.445-0.452-0.98-0.662-1.682-0.662
	c-1.289,0-2.967,0.722-4.724,2.033L61.694,29.68c-1.364,1.017-3.583,1.348-5.26,0.779L35.115,23.23
	c-3.016-1.023-5.432-0.888-6.324,0.358c-0.795,1.109-0.752,3.296,0.114,5.851l7.206,21.248c0.593,1.75,0.304,3.913-0.702,5.26
	L21.823,74.152c-1.767,2.368-2.438,4.547-1.796,5.829c0.627,1.25,2.708,1.997,5.566,1.997l5.369-0.067l17.421-0.223
	C48.384,81.688,48.385,81.688,48.386,81.688z"/>
</svg>
