<?xml version="1.0" encoding="utf-8"?>
<!-- Generator: Adobe Illustrator 19.1.0, SVG Export Plug-In . SVG Version: 6.00 Build 0)  -->
<svg version="1.1" id="Слой_3" xmlns="http://www.w3.org/2000/svg" xmlns:xlink="http://www.w3.org/1999/xlink" x="0px" y="0px"
	 viewBox="0 0 128 128" enable-background="new 0 0 128 128" xml:space="preserve">
<g>
	<path fill="#B9E3ED" d="M65.158,59.334c-0.973,0-1.961-0.179-2.921-0.558c-4.152-1.638-6.208-6.38-4.594-10.592
		c0.052-0.135,5.216-13.613,8.13-21.743c0.554-1.547,0.665-2.529,0.657-2.981c-0.558-0.32-2.47-1.154-7.229-1.154H36.856
		c-4.759,0-6.672,0.834-7.229,1.154c-0.008,0.452,0.103,1.434,0.657,2.98c2.915,8.13,8.079,21.608,8.13,21.743
		c1.614,4.212-0.443,8.954-4.594,10.592c-4.149,1.637-8.825-0.448-10.44-4.66c-0.214-0.559-5.28-13.781-8.255-22.083
		c-3.163-8.825-1.101-14.627,1.186-17.941c3.786-5.483,10.805-7.758,20.844-7.758H58.84c10.039,0,17.119,2.274,20.906,7.758
		c2.287,3.314,4.35,9.116,1.186,17.941c-2.975,8.301-8.041,21.524-8.256,22.083C71.436,57.353,68.386,59.334,65.158,59.334z"/>
	<path fill="#324654" d="M30.901,61.334c-4.124,0-7.896-2.612-9.388-6.502c-0.214-0.558-5.272-13.757-8.271-22.125
		c-3.449-9.623-1.13-16.052,1.423-19.752c4.006-5.801,11.362-8.622,22.49-8.622H58.84c11.168,0,18.545,2.82,22.552,8.621
		c2.554,3.7,4.873,10.129,1.423,19.753c-2.992,8.348-8.057,21.565-8.271,22.124c-1.491,3.889-5.263,6.502-9.386,6.502
		c-1.253,0-2.484-0.235-3.656-0.698c-5.16-2.036-7.729-7.943-5.727-13.168c0.051-0.132,5.211-13.601,8.115-21.702
		c0.137-0.382,0.239-0.712,0.315-0.995c-0.952-0.23-2.531-0.465-5.004-0.465H36.856c-2.474,0-4.053,0.235-5.004,0.465
		c0.076,0.282,0.178,0.613,0.315,0.995c2.904,8.1,8.064,21.569,8.115,21.7c2.003,5.227-0.566,11.133-5.727,13.169
		C33.381,61.099,32.152,61.334,30.901,61.334z M37.154,8.334c-9.85,0-15.95,2.19-19.198,6.894c-2.021,2.928-3.826,8.104-0.949,16.13
		c2.984,8.327,8.027,21.486,8.24,22.042c0.917,2.39,3.135,3.935,5.652,3.934c0.747,0,1.482-0.141,2.186-0.418
		c3.129-1.234,4.681-4.83,3.46-8.016c-0.05-0.13-5.227-13.643-8.145-21.784c-0.695-1.94-0.783-3.145-0.773-3.69
		c0.012-0.704,0.393-1.35,1.004-1.7c0.923-0.53,3.22-1.419,8.225-1.419h22.345c5.003,0,7.3,0.889,8.224,1.419
		c0.611,0.351,0.992,0.996,1.004,1.7c0.01,0.545-0.078,1.75-0.773,3.69c-2.919,8.141-8.096,21.654-8.146,21.786
		c-1.221,3.184,0.331,6.78,3.46,8.014c0.704,0.278,1.439,0.418,2.188,0.418c2.517,0,4.735-1.544,5.651-3.934
		c0.214-0.557,5.264-13.734,8.241-22.042c2.877-8.026,1.072-13.202-0.949-16.13c-3.204-4.639-9.504-6.894-19.26-6.894H37.154z"/>
	<path fill="#B8CBCD" d="M113.886,109.521c0,5.626-21.01,9.813-47.335,9.813c-26.326,0-48-4.187-48-9.813
		c0-5.626,21.341-10.188,47.667-10.188C92.543,99.334,113.886,103.895,113.886,109.521z"/>
	<circle fill="#B9E3ED" cx="48.371" cy="69.523" r="35.91"/>
	<path fill="#324654" d="M48.371,107.434c-20.904,0-37.91-17.007-37.91-37.911c0-20.904,17.006-37.911,37.91-37.911
		s37.91,17.007,37.91,37.911C86.281,90.427,69.275,107.434,48.371,107.434z M48.371,35.613c-18.698,0-33.91,15.212-33.91,33.911
		c0,18.698,15.212,33.911,33.91,33.911c18.698,0,33.91-15.212,33.91-33.911C82.281,50.825,67.07,35.613,48.371,35.613z"/>
	<path fill="#FFFFFF" d="M25.947,100.146c-0.768,0-1.536-0.293-2.121-0.878C16.472,91.915,12.409,82.2,12.384,71.913
		c-0.025-10.304,4.006-20.024,11.352-27.37c15.201-15.201,38.977-15.238,54.129-0.088c1.172,1.172,1.172,3.071,0,4.243
		c-1.172,1.172-3.072,1.171-4.243,0C60.85,35.925,40.801,35.965,27.979,48.785c-6.208,6.209-9.616,14.417-9.595,23.113
		c0.021,8.69,3.46,16.904,9.684,23.127c1.172,1.172,1.172,3.071,0,4.243C27.483,99.853,26.715,100.146,25.947,100.146z"/>
	<path fill="#324654" d="M48.371,108.434c-21.455,0-38.91-17.455-38.91-38.911c0-9.059,2.707-18.025,7.303-24.385
		c-1.835-4.871-3.23-8.65-4.463-12.093c-3.592-10.022-1.145-16.765,1.541-20.657c4.207-6.092,11.833-9.054,23.313-9.054H58.84
		c11.521,0,19.167,2.961,23.375,9.053c2.687,3.893,5.134,10.636,1.542,20.659c-1.143,3.189-2.71,7.427-4.662,12.615
		c5.292,6.808,8.187,15.213,8.187,23.863C87.281,90.979,69.826,108.434,48.371,108.434z M37.154,9.334
		c-9.492,0-15.331,2.053-18.375,6.462c-1.888,2.735-3.564,7.597-0.831,15.224c1.351,3.77,2.899,7.952,5.018,13.561
		c0.379,1.003,0.194,2.133-0.486,2.962c-4.396,5.362-7.019,13.579-7.019,21.98c0,18.147,14.764,32.911,32.91,32.911
		s32.91-14.764,32.91-32.911c0-7.822-2.8-15.408-7.883-21.358c-0.711-0.832-0.912-1.985-0.526-3.008
		c2.226-5.897,3.988-10.653,5.236-14.136c2.734-7.627,1.057-12.489-0.831-15.225c-3.003-4.348-9.034-6.462-18.437-6.462H37.154z
		 M33.666,38.637c-0.398,0-0.795-0.079-1.169-0.237c-0.758-0.321-1.351-0.939-1.64-1.71c-1.401-3.738-2.385-6.414-3.396-9.236
		c-0.712-1.986-0.846-3.296-0.832-4.045c0.018-1.056,0.59-2.024,1.506-2.55c1.233-0.708,3.443-1.525,8.418-1.525h23
		c4.973,0,7.138,0.816,8.372,1.524c0.916,0.526,1.489,1.495,1.507,2.551c0.013,0.749-0.121,2.059-0.832,4.044
		c-1.046,2.917-1.996,5.495-3.281,8.926c-0.286,0.763-0.868,1.376-1.615,1.7c-0.747,0.323-1.594,0.33-2.345,0.019
		c-3.468-1.439-8.326-2.265-13.329-2.265c-4.852,0-9.281,0.859-13.163,2.553C34.483,38.554,34.074,38.637,33.666,38.637z
		 M33.149,25.543c0.714,1.99,1.418,3.917,2.271,6.216c3.873-1.279,8.1-1.925,12.608-1.925c4.577,0,8.972,0.592,12.694,1.692
		c0.782-2.107,1.462-3.967,2.185-5.982c-0.88-0.132-2.089-0.237-3.707-0.237H36.856C35.238,25.307,34.029,25.412,33.149,25.543z"/>
	<path fill="#324654" d="M48.371,107.434c-20.904,0-37.91-17.007-37.91-37.911c0-20.904,17.006-37.911,37.91-37.911
		s37.91,17.007,37.91,37.911C86.281,90.427,69.275,107.434,48.371,107.434z M48.371,35.613c-18.698,0-33.91,15.212-33.91,33.911
		c0,18.698,15.212,33.911,33.91,33.911c18.698,0,33.91-15.212,33.91-33.911C82.281,50.825,67.07,35.613,48.371,35.613z"/>
	<path opacity="0.2" fill="#324654" d="M44.235,106.511c-8.922,0.001-17.622-3.467-24.617-10.462c-1.172-1.171-1.172-3.071,0-4.242
		c1.171-1.172,3.071-1.172,4.242,0c12.27,12.269,30.993,11.357,44.52-2.169c13.731-13.732,14.915-31.728,2.879-43.764
		c-1.172-1.171-1.172-3.071,0-4.242c1.171-1.172,3.071-1.172,4.242,0c14.534,14.534,13.35,36.019-2.878,52.249
		C64.23,102.273,54.096,106.511,44.235,106.511z"/>
	<path fill="#324654" d="M50.551,86.334c-1.105,0-2-0.896-2-2v-6h-10c-0.729,0-1.4-0.396-1.752-1.035
		c-0.352-0.638-0.329-1.417,0.061-2.033l12-19c0.476-0.753,1.393-1.102,2.247-0.854c0.855,0.248,1.444,1.031,1.444,1.921v17h4
		c1.104,0,2,0.896,2,2s-0.896,2-2,2h-4v6C52.551,85.438,51.655,86.334,50.551,86.334z M42.179,74.334h6.372V64.246L42.179,74.334z"
		/>
	<path fill="#B2EDA6" d="M83.145,80.059c-2.548,0-4.953-1.541-5.933-4.059c-0.158-0.407-3.908-10.052-6.11-16.109
		c-2.398-6.596-0.82-10.953,0.926-13.445c2.881-4.113,7.958-6.112,15.523-6.112h16.528c7.565,0,12.642,1.999,15.523,6.112
		c1.746,2.493,3.324,6.849,0.926,13.445c-2.202,6.057-5.951,15.702-6.11,16.109c-1.273,3.277-4.961,4.899-8.238,3.625
		c-3.275-1.274-4.898-4.962-3.624-8.238c0.039-0.099,3.857-9.922,6.011-15.845c0.326-0.896,0.425-1.476,0.453-1.801
		c-0.544-0.242-2.468-0.407-5.468-0.407h-16c-3,0-4.396,0.166-4.94,0.407c0.027,0.325,0.127,0.905,0.453,1.801
		c2.154,5.925,5.972,15.746,6.01,15.845c1.275,3.275-0.349,6.963-3.624,8.238C84.693,79.919,83.912,80.059,83.145,80.059z"/>
	<path fill="#3C663E" d="M108.486,82.06c-1.038,0-2.057-0.192-3.031-0.57c-4.298-1.673-6.436-6.529-4.764-10.827
		c0.037-0.095,3.623-9.32,5.796-15.26c-0.7-0.039-1.654-0.068-2.937-0.068h-16c-1.037,0-1.823,0.021-2.416,0.05
		c1.909,5.218,4.882,12.905,5.772,15.197c1.703,4.378-0.433,9.235-4.732,10.907c-0.973,0.378-1.993,0.57-3.03,0.57
		c-3.475,0-6.536-2.094-7.796-5.333c-0.411-1.059-4.006-10.32-6.125-16.151c-2.693-7.405-0.852-12.394,1.167-15.276
		c3.283-4.687,8.896-6.964,17.161-6.964h16.528c8.265,0,13.879,2.278,17.161,6.964c2.018,2.882,3.86,7.871,1.167,15.276
		c-2.243,6.17-6.088,16.055-6.126,16.151C115.023,79.965,111.963,82.06,108.486,82.06z M87.551,51.334h16
		c4.976,0,5.923,0.421,6.28,0.58c0.778,0.346,1.252,1.146,1.181,1.995c-0.055,0.656-0.246,1.435-0.566,2.316
		c-2.161,5.942-5.989,15.79-6.027,15.887c-0.872,2.242,0.243,4.776,2.486,5.649c0.509,0.198,1.041,0.298,1.581,0.298
		c1.814,0,3.411-1.093,4.067-2.784c0.039-0.099,3.866-9.939,6.095-16.068c2.104-5.788,0.789-9.51-0.685-11.614
		c-2.479-3.539-7.021-5.259-13.885-5.259H87.551c-6.864,0-11.406,1.72-13.885,5.259c-1.474,2.104-2.789,5.827-0.685,11.614
		c2.106,5.791,5.686,15.015,6.087,16.048c0.666,1.711,2.263,2.804,4.076,2.804c0.54,0,1.072-0.1,1.58-0.298
		c2.242-0.873,3.357-3.406,2.485-5.649c-0.956-2.464-4.118-10.638-6.026-15.887c-0.32-0.88-0.511-1.659-0.566-2.317
		c-0.071-0.848,0.402-1.649,1.181-1.995C82.476,51.613,83.641,51.334,87.551,51.334z"/>
	<circle fill="#B2EDA6" cx="95.726" cy="88.475" r="24.859"/>
	<path fill="#3C663E" d="M95.726,115.334c-14.81,0-26.859-12.049-26.859-26.859c0-14.811,12.049-26.859,26.859-26.859
		c14.811,0,26.86,12.049,26.86,26.859C122.586,103.285,110.536,115.334,95.726,115.334z M95.726,65.615
		c-12.604,0-22.859,10.255-22.859,22.859s10.254,22.859,22.859,22.859c12.605,0,22.86-10.255,22.86-22.859
		S108.331,65.615,95.726,65.615z"/>
	<path fill="#B2EDA6" d="M113.886,71.499c6.7,11.96,5.956,21.898-3.752,31.606c-9.708,9.709-25.448,9.709-35.156,0"/>
	<path opacity="0.2" fill="#3C663E" d="M92.556,112.386c-7.174,0-13.919-2.794-18.992-7.867c-0.781-0.781-0.781-2.047,0-2.828
		c0.78-0.781,2.048-0.781,2.828,0c4.318,4.317,10.058,6.695,16.164,6.695c6.106,0,11.846-2.378,16.164-6.695
		c8.771-8.771,9.826-17.781,3.421-29.214c-0.539-0.964-0.196-2.183,0.768-2.723c0.965-0.539,2.184-0.195,2.723,0.768
		c7.328,13.082,6.03,23.885-4.083,33.998C106.475,109.592,99.73,112.386,92.556,112.386z"/>
	<path fill="#FFFFFF" d="M81.329,110.456c-0.512,0-1.023-0.195-1.414-0.586c-5.073-5.073-7.867-11.818-7.867-18.992
		c0-7.174,2.794-13.919,7.867-18.992c5.081-5.082,11.653-7.912,18.503-7.968c0.069,0,0.139,0,0.207,0
		c6.813,0,13.315,2.753,18.329,7.768c0.781,0.781,0.781,2.047,0,2.828c-0.78,0.781-2.048,0.781-2.828,0
		c-4.3-4.3-9.869-6.645-15.675-6.595c-5.794,0.047-11.373,2.461-15.708,6.796c-4.317,4.318-6.695,10.058-6.695,16.164
		c0,6.106,2.378,11.846,6.695,16.164c0.781,0.781,0.781,2.047,0,2.828C82.353,110.261,81.841,110.456,81.329,110.456z"/>
	<path fill="#3C663E" d="M101.316,101.334H90.139c-1.104,0-2-0.896-2-2c0-3.164,2.773-5.704,5.71-8.393
		c2.287-2.095,4.879-4.469,4.879-6.313c0-2.4-2.021-3.294-3.294-3.294c-1.45,0-3.883,0.504-3.883,3.882c0,1.104-0.896,2-2,2
		c-1.105,0-2-0.896-2-2c0-5.445,3.959-7.882,7.883-7.882c3.585,0,7.294,2.729,7.294,7.294c0,3.605-3.141,6.482-6.178,9.263
		c-1.18,1.081-2.534,2.321-3.427,3.443h8.193c1.104,0,2,0.896,2,2S102.42,101.334,101.316,101.334z"/>
	<path fill="#3C663E" d="M95.726,116.334c-15.627,0-28.341-12.498-28.341-27.859c0-5.876,1.926-12.339,4.99-16.981
		c-0.277-0.707-0.569-1.445-0.871-2.207c-1.036-2.62-2.21-5.59-3.221-8.371c-2.839-7.809-0.867-13.115,1.288-16.191
		c3.483-4.973,9.365-7.391,17.98-7.391h16.528c8.615,0,14.497,2.417,17.98,7.391c2.155,3.076,4.128,8.382,1.288,16.192
		c-1.075,2.956-2.391,6.458-4.009,10.67c2.804,4.415,4.505,10.706,4.505,16.888C123.842,103.836,111.229,116.334,95.726,116.334z
		 M87.551,43.334c-6.514,0-10.788,1.581-13.066,4.833c-1.918,2.738-2.113,6.438-0.563,10.699c0.982,2.702,2.141,5.631,3.162,8.215
		c0.53,1.339,1.032,2.61,1.475,3.757c0.379,0.984,0.215,2.095-0.434,2.926c-2.835,3.631-4.74,9.543-4.74,14.711
		c0,11.849,10.231,21.859,22.341,21.859c12.195,0,22.117-9.806,22.117-21.859c0-5.538-1.67-11.29-4.255-14.653
		c-0.638-0.83-0.797-1.932-0.42-2.908c1.87-4.846,3.355-8.787,4.541-12.047c1.549-4.261,1.354-7.961-0.563-10.699
		c-2.278-3.252-6.552-4.833-13.066-4.833H87.551z M105.244,67.406c-0.375,0-0.75-0.07-1.105-0.211
		c-2.178-0.863-5.087-1.32-8.412-1.32c-3.595,0-6.315,0.378-8.317,1.156c-0.745,0.288-1.573,0.27-2.303-0.054
		c-0.73-0.324-1.301-0.925-1.586-1.67c-1.396-3.649-2.345-6.181-3.276-8.741c-0.351-0.962-0.56-1.829-0.622-2.574
		c-0.107-1.273,0.603-2.474,1.77-2.993c0.899-0.4,2.291-0.666,6.159-0.666h16c5.188,0,6.2,0.45,6.686,0.666
		c1.167,0.519,1.878,1.72,1.771,2.993c-0.063,0.744-0.272,1.61-0.623,2.574c-0.943,2.593-1.942,5.258-3.34,8.912
		c-0.287,0.749-0.861,1.352-1.595,1.674C106.067,67.322,105.655,67.406,105.244,67.406z M95.726,59.875
		c2.103,0,4.92,0.166,7.716,0.834c0.609-1.606,1.138-3.02,1.633-4.36c-0.444-0.01-0.95-0.016-1.524-0.016h-16
		c-0.365,0-0.697,0.002-0.999,0.007c0.48,1.301,0.991,2.665,1.587,4.236C90.292,60.106,92.801,59.875,95.726,59.875z"/>
	<path fill="#3C663E" d="M95.726,115.334c-14.81,0-26.859-12.049-26.859-26.859c0-14.811,12.049-26.859,26.859-26.859
		c14.811,0,26.86,12.049,26.86,26.859C122.586,103.285,110.536,115.334,95.726,115.334z M95.726,65.615
		c-12.604,0-22.859,10.255-22.859,22.859s10.254,22.859,22.859,22.859c12.605,0,22.86-10.255,22.86-22.859
		S108.331,65.615,95.726,65.615z"/>
</g>
</svg>
